PathFileType	4	(X/Y/Z)	RBDS011static.trc
DataRate	CameraRate	NumFrames	NumMarkers	Units	OrigDataRate	OrigDataStartFrame	OrigNumFrames
150.000000	150.000000	4	48	mm	150.000000	131	150
Frame#	Time	L.Ankle			L.Ankle.Medial			L.ASIS			L.GTR			L.Heel.Bottom			L.Heel.Lateral			L.Heel.Top			L.HF			L.Iliac.Crest			L.Knee			L.Knee.Medial			L.MT1			L.MT2			L.MT5			L.PSIS			L.Shank.Bottom.Lateral			L.Shank.Bottom.Medial			L.Shank.Top.Lateral			L.Shank.Top.Medial			L.Thigh.Bottom.Lateral			L.Thigh.Bottom.Medial			L.Thigh.Top.Lateral			L.Thigh.Top.Medial			L.TT			R.Ankle			R.Ankle.Medial			R.ASIS			R.GTR			R.Heel.Bottom			R.Heel.Lateral			R.Heel.Top			R.HF			R.Iliac.Crest			R.Knee			R.Knee.Medial			R.MT1			R.MT2			R.MT5			R.PSIS			R.Shank.Bottom.Lateral			R.Shank.Bottom.Medial			R.Shank.Top.Lateral			R.Shank.Top.Medial			R.Thigh.Bottom.Lateral			R.Thigh.Bottom.Medial			R.Thigh.Top.Lateral			R.Thigh.Top.Medial			R.TT			
		X1	Y1	Z1	X2	Y2	Z2	X3	Y3	Z3	X4	Y4	Z4	X5	Y5	Z5	X6	Y6	Z6	X7	Y7	Z7	X8	Y8	Z8	X9	Y9	Z9	X10	Y10	Z10	X11	Y11	Z11	X12	Y12	Z12	X13	Y13	Z13	X14	Y14	Z14	X15	Y15	Z15	X16	Y16	Z16	X17	Y17	Z17	X18	Y18	Z18	X19	Y19	Z19	X20	Y20	Z20	X21	Y21	Z21	X22	Y22	Z22	X23	Y23	Z23	X24	Y24	Z24	X25	Y25	Z25	X26	Y26	Z26	X27	Y27	Z27	X28	Y28	Z28	X29	Y29	Z29	X30	Y30	Z30	X31	Y31	Z31	X32	Y32	Z32	X33	Y33	Z33	X34	Y34	Z34	X35	Y35	Z35	X36	Y36	Z36	X37	Y37	Z37	X38	Y38	Z38	X39	Y39	Z39	X40	Y40	Z40	X41	Y41	Z41	X42	Y42	Z42	X43	Y43	Z43	X44	Y44	Z44	X45	Y45	Z45	X46	Y46	Z46	X47	Y47	Z47	X48	Y48	Z48	

132	0.8733333333333334	713.991455078125	107.3401489257813	1037.138061523438	735.44775390625	120.8016204833984	1120.400146484375	880.7093505859375	1029.009643554688	1086.661254882813	822.4061889648438	919.86962890625	1031.918701171875	638.9865112304688	42.56586456298828	1083.84130859375	663.3678588867188	57.19008255004883	1044.852661132813	649.6495361328125	91.24953460693359	1085.50732421875	751.9111328125	471.0854187011719	1034.69140625	809.3953247070313	1089.110107421875	1048.611206054688	757.1500244140625	537.5223388671875	1039.910522460938	761.8760375976563	517.8485107421875	1161.1572265625	864.8256225585938	54.4796142578125	1124.942504882813	876.5755615234375	66.35385131835938	1077.369262695313	836.2654418945313	49.42152786254883	1009.164306640625	706.1119995117188	1042.889770507813	1150.567749023438	707.5982055664063	188.8265991210938	1034.966796875	672.6821899414063	192.9657440185547	1077.544921875	705.158935546875	268.8214721679688	1025.9638671875	672.5823364257813	273.5272521972656	1069.101928710938	779.0576171875	646.3052978515625	1025.624755859375	717.8977661132813	647.1099853515625	1065.570190429688	772.7797241210938	756.4771118164063	1020.396301269531	718.6735229492188	757.6731567382813	1063.3037109375	813.8658447265625	455.9093933105469	1080.250122070313	714.1868896484375	107.822265625	1416.30322265625	736.4638671875	125.9649963378906	1333.976440429688	862.6253051757813	1033.075317382813	1341.40673828125	801.994140625	924.6203002929688	1395.789428710938	640.0067749023438	43.76194000244141	1374.706665039063	666.6553344726563	64.21273803710938	1414.701904296875	650.765625	93.63117218017578	1373.67919921875	750.1415405273438	476.7178039550781	1408.14306640625	796.1492309570313	1081.28857421875	1367.404663085938	759.4498901367188	539.115234375	1401.886840820313	764.0694580078125	523.1275634765625	1279.615478515625	861.8049926757813	57.83197021484375	1327.239135742188	870.4568481445313	71.59130096435547	1372.943725585938	841.9437255859375	49.28021240234375	1444.360961914063	698.6332397460938	1046.415649414063	1252.325805664063	701.187744140625	182.1992492675781	1414.110595703125	669.2286987304688	190.5150909423828	1374.945922851563	705.1380615234375	266.501220703125	1425.089477539063	671.0411987304688	269.9538269042969	1383.671020507813	758.3470458984375	655.33251953125	1406.65869140625	706.4087524414063	655.4459228515625	1353.783569335938	753.7352905273438	764.8419799804688	1407.582397460938	705.7319946289063	765.978271484375	1357.856689453125	811.6240234375	460.3626403808594	1371.038696289063	
133	0.88	713.988037109375	107.3385238647461	1037.14013671875	735.4495849609375	120.8001174926758	1120.402099609375	880.6909790039063	1028.950561523438	1086.538696289063	822.431884765625	919.8695068359375	1031.927734375	638.989013671875	42.56784057617188	1083.840087890625	663.364013671875	57.18944549560547	1044.847412109375	649.647216796875	91.24965667724609	1085.506591796875	751.9157104492188	471.0817260742188	1034.691772460938	809.4021606445313	1089.103515625	1048.61376953125	757.1430053710938	537.5264892578125	1039.9150390625	761.8720703125	517.84716796875	1161.16650390625	864.8250122070313	54.47531127929688	1124.947631835938	876.5782470703125	66.35456085205078	1077.364990234375	836.2689819335938	49.41676712036133	1009.161315917969	706.1357421875	1042.888793945313	1150.555786132813	707.599365234375	188.8218078613281	1034.976318359375	672.6736450195313	192.9658660888672	1077.540649414063	705.1508178710938	268.8182678222656	1025.97021484375	672.5858154296875	273.5267333984375	1069.114501953125	779.058349609375	646.3136596679688	1025.623901367188	717.9017333984375	647.127197265625	1065.56591796875	772.78369140625	756.4746704101563	1020.398193359375	718.6925659179688	757.6775512695313	1063.315673828125	813.860595703125	455.9127502441406	1080.249633789063	714.1868286132813	107.826057434082	1416.308349609375	736.462890625	125.9636077880859	1333.979370117188	862.639404296875	1033.068481445313	1341.415771484375	802.0023193359375	924.6216430664063	1395.798095703125	640.0131225585938	43.76274108886719	1374.712036132813	666.6524658203125	64.21965789794922	1414.70703125	650.768798828125	93.63064575195313	1373.683715820313	750.1416015625	476.7188110351563	1408.147338867188	796.1731567382813	1081.28271484375	1367.398193359375	759.460693359375	539.1197509765625	1401.86572265625	764.0886840820313	523.12109375	1279.623168945313	861.800048828125	57.83945846557617	1327.233032226563	870.4537963867188	71.58260345458984	1372.9375	841.933837890625	49.28450393676758	1444.367309570313	698.6517944335938	1046.409301757813	1252.327758789063	701.1817626953125	182.2039031982422	1414.109619140625	669.22705078125	190.5146026611328	1374.934448242188	705.142578125	266.4974670410156	1425.091674804688	671.0458374023438	269.9571838378906	1383.673095703125	758.341796875	655.334716796875	1406.662719726563	706.41845703125	655.4409790039063	1353.786987304688	753.7424926757813	764.8449096679688	1407.587524414063	705.7386474609375	765.9791870117188	1357.854125976563	811.6183471679688	460.369384765625	1371.051147460938	
134	0.8866666666666667	713.9885864257813	107.3485870361328	1037.141479492188	735.440185546875	120.8070831298828	1120.410278320313	880.70556640625	1028.946044921875	1086.535034179688	822.4378662109375	919.8682250976563	1031.93212890625	638.9882202148438	42.56522750854492	1083.843383789063	663.3678588867188	57.19547653198242	1044.847778320313	649.6481323242188	91.25096893310547	1085.509765625	751.9048461914063	471.0959777832031	1034.698852539063	809.4188232421875	1089.09619140625	1048.622436523438	757.14892578125	537.5194702148438	1039.915405273438	761.8783569335938	517.8460693359375	1161.170532226563	864.8187866210938	54.47769546508789	1124.947387695313	876.571044921875	66.35476684570313	1077.369384765625	836.2676391601563	49.42226028442383	1009.162963867188	706.1571655273438	1042.888427734375	1150.564208984375	707.6001586914063	188.8247985839844	1034.977783203125	672.6751098632813	192.9751739501953	1077.55029296875	705.1554565429688	268.8209838867188	1025.976196289063	672.583251953125	273.5277099609375	1069.115600585938	779.0702514648438	646.3135986328125	1025.633911132813	717.9046020507813	647.1259155273438	1065.561645507813	772.80029296875	756.4747314453125	1020.411926269531	718.7000732421875	757.6787109375	1063.315063476563	813.8512573242188	455.921630859375	1080.247802734375	714.175537109375	107.8255462646484	1416.316528320313	736.4603271484375	125.9669876098633	1333.979614257813	862.6552124023438	1033.065551757813	1341.42041015625	802.0145874023438	924.6109008789063	1395.7998046875	640.0155639648438	43.75802612304688	1374.706787109375	666.6563110351563	64.20851898193359	1414.703125	650.7666015625	93.63077545166016	1373.688110351563	750.1357421875	476.7225952148438	1408.154541015625	796.1979370117188	1081.278442382813	1367.402099609375	759.4577026367188	539.119873046875	1401.907470703125	764.0823364257813	523.122314453125	1279.624389648438	861.8014526367188	57.8463134765625	1327.233520507813	870.458984375	71.58710479736328	1372.940063476563	841.9330444335938	49.27919769287109	1444.373291015625	698.67041015625	1046.41162109375	1252.338745117188	701.1897583007813	182.2026214599609	1414.116943359375	669.2349243164063	190.5235443115234	1374.9462890625	705.1427612304688	266.5009460449219	1425.087890625	671.0401000976563	269.9607238769531	1383.666259765625	758.3494873046875	655.3435668945313	1406.66796875	706.4219970703125	655.4462890625	1353.798706054688	753.7460327148438	764.84521484375	1407.588623046875	705.7484130859375	765.9816284179688	1357.859985351563	811.626708984375	460.3682250976563	1371.070678710938	
135	0.8933333333333334	713.9927368164063	107.3383483886719	1037.139892578125	735.44921875	120.7954483032227	1120.410278320313	880.7310180664063	1028.940307617188	1086.536987304688	822.4605102539063	919.8641967773438	1031.946533203125	638.9851684570313	42.56241989135742	1083.843872070313	663.3665771484375	57.1948356628418	1044.852294921875	649.6494750976563	91.24847412109375	1085.512817382813	751.90673828125	471.0984802246094	1034.698608398438	809.4439086914063	1089.088134765625	1048.6240234375	757.1407470703125	537.5281372070313	1039.918212890625	761.8651123046875	517.843994140625	1161.17822265625	864.82373046875	54.46889114379883	1124.94677734375	876.5733032226563	66.35475921630859	1077.373779296875	836.2741088867188	49.42065811157227	1009.166687011719	706.1722412109375	1042.888671875	1150.580688476563	707.5949096679688	188.8280639648438	1034.97705078125	672.6802368164063	192.9664001464844	1077.55712890625	705.1488037109375	268.8265380859375	1025.983032226563	672.5842895507813	273.5305480957031	1069.122924804688	779.06591796875	646.3079833984375	1025.637573242188	717.9041137695313	647.1261596679688	1065.576171875	772.816162109375	756.475341796875	1020.417419433594	718.705078125	757.6876220703125	1063.3232421875	813.8597412109375	455.9155883789063	1080.259887695313	714.1932983398438	107.815299987793	1416.303955078125	736.4571533203125	125.9776458740234	1333.974731445313	862.6723022460938	1033.061889648438	1341.427856445313	802.0346069335938	924.6175537109375	1395.8056640625	640.0199584960938	43.7553825378418	1374.70947265625	666.6510009765625	64.20951080322266	1414.710693359375	650.7711181640625	93.62198638916016	1373.690673828125	750.1356201171875	476.726318359375	1408.1591796875	796.2293090820313	1081.282348632813	1367.402954101563	759.45654296875	539.1073608398438	1401.893310546875	764.0900268554688	523.118896484375	1279.635864257813	861.8026733398438	57.84116744995117	1327.237915039063	870.4578857421875	71.59062194824219	1372.944091796875	841.9388427734375	49.28076553344727	1444.369384765625	698.6856689453125	1046.413208007813	1252.343994140625	701.1910400390625	182.1987152099609	1414.113891601563	669.2332763671875	190.5180358886719	1374.947875976563	705.147216796875	266.4960021972656	1425.091430664063	671.0504150390625	269.9580993652344	1383.677734375	758.3543090820313	655.3369750976563	1406.67236328125	706.4203491210938	655.4586181640625	1353.786499023438	753.7574462890625	764.8484497070313	1407.588134765625	705.7617797851563	765.9794921875	1357.871337890625	811.6248779296875	460.3752746582031	1371.0693359375	
